<?xml version="1.0" encoding="iso-8859-1"?>
<!-- Generator: Adobe Illustrator 19.0.0, SVG Export Plug-In . SVG Version: 6.00 Build 0)  -->
<svg version="1.1" id="Layer_1" xmlns="http://www.w3.org/2000/svg" xmlns:xlink="http://www.w3.org/1999/xlink" x="0px" y="0px"
	 viewBox="0 0 511.999 511.999" style="enable-background:new 0 0 511.999 511.999;" xml:space="preserve">
<polyline style="fill:#CEE8FA;" points="321.608,255.995 282.493,374.827 498.326,255.995 "/>
<path style="fill:#2D527C;" d="M510.79,261.577c0.053-0.119,0.112-0.235,0.161-0.355c0.205-0.496,0.384-1.003,0.53-1.52
	c0.029-0.101,0.046-0.204,0.072-0.306c0.112-0.436,0.202-0.876,0.271-1.321c0.023-0.149,0.044-0.297,0.063-0.447
	c0.063-0.521,0.104-1.044,0.107-1.572c0-0.021,0.004-0.041,0.004-0.062c0-0.004-0.001-0.01-0.001-0.014
	c0-0.566-0.044-1.133-0.115-1.701c-0.015-0.119-0.036-0.235-0.055-0.353c-0.068-0.446-0.159-0.889-0.273-1.33
	c-0.031-0.124-0.06-0.25-0.096-0.373c-0.153-0.53-0.328-1.057-0.55-1.575v-0.001c-0.179-0.421-0.381-0.838-0.607-1.247
	c-0.04-0.071-0.086-0.135-0.127-0.205c-0.083-0.145-0.175-0.283-0.262-0.425c-0.215-0.344-0.442-0.677-0.681-0.997
	c-0.093-0.123-0.185-0.246-0.282-0.366c-0.331-0.41-0.677-0.801-1.046-1.165c-0.015-0.015-0.029-0.031-0.044-0.045
	c-0.407-0.396-0.841-0.759-1.289-1.098c-0.092-0.07-0.187-0.133-0.282-0.2c-0.377-0.271-0.767-0.52-1.168-0.749
	c-0.07-0.041-0.131-0.092-0.202-0.13L289.085,125.187c-4.922-2.708-11-2.131-15.325,1.456c-4.323,3.589-6.011,9.456-4.254,14.793
	l26.438,80.319c2.362,7.173,10.089,11.076,17.261,8.711c7.172-2.361,11.072-10.088,8.711-17.259L306.343,165.9l163.639,90.095
	l-18.575,10.227L306.343,346.09l25.156-76.424h69.904c7.549,0,13.671-6.12,13.671-13.671c0-7.55-6.122-13.671-13.671-13.671h-79.548
	c-0.027,0-0.056,0-0.083,0h-0.165c-0.104,0-0.204,0.014-0.306,0.015c-0.329,0.007-0.659,0.019-0.984,0.049
	c-0.174,0.016-0.343,0.045-0.515,0.068c-0.264,0.036-0.528,0.07-0.789,0.12c-0.224,0.044-0.442,0.1-0.662,0.153
	c-0.202,0.049-0.405,0.096-0.604,0.156c-0.25,0.074-0.492,0.16-0.736,0.247c-0.167,0.06-0.335,0.116-0.5,0.183
	c-0.247,0.1-0.488,0.212-0.729,0.325c-0.159,0.075-0.317,0.148-0.473,0.228c-0.224,0.116-0.442,0.243-0.658,0.372
	c-0.167,0.098-0.335,0.197-0.498,0.302c-0.189,0.123-0.369,0.254-0.551,0.386c-0.182,0.131-0.364,0.262-0.539,0.403
	c-0.152,0.122-0.298,0.252-0.444,0.379c-0.19,0.165-0.377,0.331-0.558,0.507c-0.126,0.123-0.245,0.252-0.365,0.379
	c-0.183,0.193-0.365,0.387-0.537,0.591c-0.113,0.134-0.219,0.275-0.327,0.414c-0.16,0.205-0.32,0.41-0.469,0.626
	c-0.116,0.168-0.223,0.344-0.332,0.518c-0.122,0.194-0.245,0.387-0.357,0.588c-0.127,0.228-0.241,0.463-0.354,0.699
	c-0.078,0.161-0.161,0.319-0.232,0.483c-0.128,0.293-0.239,0.595-0.347,0.898c-0.037,0.104-0.083,0.201-0.118,0.306l-0.055,0.167
	c-0.007,0.022-0.014,0.042-0.021,0.063l-39.04,118.603c-0.031,0.096-0.053,0.193-0.083,0.288c-0.038,0.127-0.075,0.256-0.111,0.384
	c-0.077,0.28-0.142,0.561-0.201,0.842c-0.023,0.113-0.049,0.227-0.071,0.342c-0.071,0.395-0.13,0.79-0.165,1.187
	c-0.001,0.015-0.001,0.029-0.003,0.044c-0.033,0.377-0.046,0.755-0.048,1.132c0,0.145,0.005,0.29,0.01,0.435
	c0.007,0.253,0.021,0.503,0.041,0.755c0.014,0.163,0.027,0.324,0.046,0.487c0.031,0.268,0.075,0.535,0.123,0.8
	c0.023,0.13,0.041,0.261,0.068,0.391c0.078,0.368,0.174,0.73,0.28,1.091c0.041,0.138,0.089,0.273,0.135,0.411
	c0.09,0.269,0.187,0.536,0.294,0.798c0.049,0.12,0.096,0.241,0.148,0.36c0.167,0.381,0.345,0.757,0.545,1.122l0.001,0.001
	c0.001,0.003,0.003,0.004,0.004,0.007c0.287,0.521,0.612,1.021,0.968,1.504c0.031,0.042,0.059,0.087,0.092,0.13
	c0.32,0.424,0.671,0.826,1.043,1.214c0.082,0.085,0.161,0.172,0.245,0.256c0.286,0.283,0.581,0.558,0.894,0.819
	c0.068,0.056,0.141,0.104,0.211,0.159c0.13,0.104,0.264,0.202,0.396,0.301c0.354,0.262,0.716,0.507,1.09,0.731
	c0.079,0.048,0.154,0.101,0.235,0.148c0.455,0.261,0.926,0.487,1.403,0.692c0.118,0.051,0.237,0.097,0.355,0.145
	c0.458,0.182,0.923,0.343,1.396,0.474c0.044,0.012,0.086,0.029,0.129,0.04c0.506,0.135,1.02,0.231,1.537,0.308
	c0.138,0.021,0.275,0.037,0.413,0.053c0.492,0.057,0.986,0.094,1.481,0.098c0.033,0,0.064,0.007,0.097,0.007
	c2.23,0,4.491-0.547,6.581-1.698l215.835-118.834c0.499-0.275,0.967-0.585,1.418-0.91c0.119-0.086,0.234-0.179,0.35-0.269
	c0.349-0.269,0.681-0.552,0.997-0.849c0.093-0.087,0.189-0.172,0.279-0.262c0.792-0.787,1.472-1.658,2.038-2.592
	c0.071-0.116,0.135-0.235,0.202-0.353C510.42,262.357,510.614,261.972,510.79,261.577z"/>
<polyline style="fill:#CEE8FA;" points="190.39,255.995 229.503,137.161 13.669,255.995 "/>
<g>
	<path style="fill:#2D527C;" d="M110.592,242.324c-7.549,0-13.671,6.12-13.671,13.671s6.122,13.671,13.671,13.671h79.698
		c0.034,0,0.068,0.004,0.101,0.004c0.437,0,0.872-0.029,1.304-0.07c0.093-0.008,0.183-0.022,0.276-0.033
		c0.32-0.037,0.638-0.086,0.953-0.145c0.133-0.025,0.264-0.049,0.394-0.078c0.283-0.063,0.562-0.135,0.839-0.216
		c0.126-0.036,0.254-0.067,0.379-0.107c0.364-0.116,0.72-0.247,1.073-0.392c0.15-0.063,0.295-0.134,0.443-0.201
		c0.22-0.1,0.439-0.202,0.653-0.314c0.152-0.079,0.299-0.163,0.448-0.247c0.216-0.123,0.428-0.252,0.637-0.387
		c0.124-0.081,0.249-0.159,0.37-0.242c0.279-0.193,0.55-0.396,0.815-0.61c0.042-0.034,0.087-0.066,0.13-0.101
		c0.323-0.267,0.632-0.548,0.93-0.845c0.033-0.031,0.062-0.066,0.093-0.098c0.254-0.258,0.499-0.528,0.734-0.808
		c0.062-0.074,0.122-0.15,0.182-0.226c0.195-0.245,0.384-0.496,0.565-0.755c0.066-0.094,0.131-0.189,0.195-0.286
		c0.164-0.249,0.317-0.506,0.466-0.767c0.062-0.107,0.126-0.212,0.183-0.32c0.154-0.29,0.295-0.588,0.429-0.891
		c0.082-0.185,0.157-0.373,0.231-0.562c0.09-0.232,0.185-0.462,0.262-0.701l0.055-0.167c0.007-0.022,0.014-0.042,0.021-0.063
		l39.04-118.603c0.031-0.096,0.053-0.193,0.083-0.288c0.038-0.127,0.075-0.256,0.111-0.384c0.077-0.28,0.142-0.561,0.201-0.842
		c0.023-0.113,0.049-0.227,0.071-0.342c0.071-0.395,0.13-0.79,0.165-1.187c0.001-0.015,0.001-0.029,0.003-0.044
		c0.033-0.377,0.046-0.755,0.048-1.132c0-0.145-0.005-0.29-0.01-0.435c-0.007-0.253-0.021-0.503-0.041-0.755
		c-0.014-0.163-0.027-0.324-0.046-0.487c-0.031-0.268-0.075-0.535-0.123-0.8c-0.023-0.131-0.041-0.261-0.068-0.392
		c-0.077-0.368-0.172-0.73-0.28-1.09c-0.041-0.138-0.09-0.276-0.135-0.413c-0.089-0.269-0.186-0.535-0.293-0.797
		c-0.049-0.12-0.096-0.241-0.148-0.36c-0.167-0.381-0.344-0.757-0.545-1.122l-0.001-0.001c-0.003-0.005-0.005-0.01-0.008-0.014
		c-0.197-0.357-0.414-0.701-0.644-1.042c-0.072-0.108-0.149-0.213-0.224-0.319c-0.165-0.231-0.34-0.457-0.521-0.678
		c-0.092-0.112-0.18-0.226-0.275-0.334c-0.228-0.262-0.469-0.518-0.719-0.764c-0.126-0.123-0.256-0.239-0.386-0.357
		c-0.154-0.141-0.306-0.284-0.468-0.42c-0.023-0.019-0.049-0.033-0.074-0.052c-0.484-0.396-0.993-0.755-1.52-1.079
		c-0.098-0.06-0.198-0.113-0.298-0.171c-0.476-0.275-0.965-0.522-1.468-0.738c-0.078-0.033-0.153-0.072-0.231-0.105
		c-0.547-0.221-1.109-0.399-1.679-0.55c-0.138-0.036-0.275-0.067-0.413-0.098c-0.559-0.129-1.124-0.231-1.695-0.288
		c-0.025-0.003-0.049-0.008-0.074-0.011c-0.604-0.057-1.214-0.063-1.825-0.038c-0.119,0.004-0.238,0.011-0.357,0.019
		c-1.21,0.079-2.42,0.321-3.601,0.735c-0.128,0.045-0.254,0.092-0.381,0.139c-0.578,0.221-1.151,0.47-1.709,0.778L7.076,244.018
		c-0.499,0.275-0.967,0.585-1.418,0.91c-0.12,0.086-0.234,0.179-0.35,0.269c-0.349,0.269-0.681,0.552-0.997,0.849
		c-0.093,0.087-0.189,0.172-0.279,0.262c-0.792,0.787-1.472,1.658-2.038,2.592c-0.071,0.116-0.135,0.235-0.204,0.354
		c-0.213,0.377-0.407,0.761-0.584,1.155c-0.053,0.119-0.112,0.235-0.161,0.357c-0.205,0.496-0.384,1.002-0.53,1.519
		c-0.029,0.101-0.046,0.204-0.072,0.305c-0.112,0.436-0.202,0.876-0.271,1.322c-0.023,0.148-0.044,0.295-0.062,0.444
		c-0.063,0.521-0.104,1.046-0.107,1.574c0,0.021-0.004,0.041-0.004,0.062c0,0.004,0.001,0.01,0.001,0.014
		c0,0.566,0.044,1.135,0.115,1.702c0.015,0.118,0.036,0.234,0.053,0.35c0.068,0.446,0.159,0.89,0.273,1.332
		c0.031,0.126,0.06,0.25,0.097,0.375c0.153,0.53,0.328,1.057,0.548,1.574v0.001c0.179,0.421,0.381,0.838,0.607,1.247
		c0.04,0.071,0.086,0.135,0.127,0.205c0.083,0.146,0.176,0.286,0.265,0.429c0.213,0.342,0.437,0.671,0.675,0.988
		c0.096,0.126,0.189,0.253,0.288,0.376c0.325,0.402,0.666,0.786,1.028,1.144c0.022,0.022,0.041,0.045,0.062,0.066
		c0.405,0.394,0.835,0.755,1.281,1.091c0.096,0.072,0.197,0.139,0.294,0.209c0.373,0.267,0.756,0.513,1.152,0.74
		c0.072,0.041,0.135,0.094,0.209,0.134l215.835,118.834c2.066,1.137,4.334,1.695,6.591,1.695c3.122,0,6.224-1.069,8.734-3.151
		c4.323-3.589,6.011-9.456,4.254-14.793l-26.438-80.319c-2.362-7.172-10.085-11.072-17.261-8.711
		c-7.172,2.361-11.072,10.088-8.711,17.259l15.572,47.307L42.013,255.995l18.575-10.227L205.652,165.9l-25.156,76.424H110.592z"/>
	<path style="fill:#2D527C;" d="M267.978,269.666h-23.961c-7.549,0-13.671-6.12-13.671-13.671s6.122-13.671,13.671-13.671h23.961
		c7.549,0,13.671,6.12,13.671,13.671S275.529,269.666,267.978,269.666z"/>
</g>
<g>
</g>
<g>
</g>
<g>
</g>
<g>
</g>
<g>
</g>
<g>
</g>
<g>
</g>
<g>
</g>
<g>
</g>
<g>
</g>
<g>
</g>
<g>
</g>
<g>
</g>
<g>
</g>
<g>
</g>
</svg>
